<mxfile host="app.diagrams.net" modified="2022-03-28T19:33:16.308Z" agent="5.0 (Windows NT 10.0; Win64; x64) AppleWebKit/537.36 (KHTML, like Gecko) Chrome/99.0.4844.88 Safari/537.36" etag="Sv5CFEWxBNqQPF_aBVWG" version="17.2.4" type="github">
  <diagram id="kgpKYQtTHZ0yAKxKKP6v" name="Page-1">
    <mxGraphModel dx="1422" dy="712" grid="1" gridSize="10" guides="1" tooltips="1" connect="1" arrows="1" fold="1" page="1" pageScale="1" pageWidth="850" pageHeight="1100" math="0" shadow="0">
      <root>
        <mxCell id="0" />
        <mxCell id="1" parent="0" />
        <mxCell id="eVhwn7_vrDTEvKwWp3mb-1" value="Actor" style="rounded=0;whiteSpace=wrap;html=1;" vertex="1" parent="1">
          <mxGeometry x="70" y="80" width="120" height="40" as="geometry" />
        </mxCell>
        <mxCell id="eVhwn7_vrDTEvKwWp3mb-2" value="Session" style="rounded=0;whiteSpace=wrap;html=1;" vertex="1" parent="1">
          <mxGeometry x="350" y="80" width="120" height="40" as="geometry" />
        </mxCell>
        <mxCell id="eVhwn7_vrDTEvKwWp3mb-3" value="Student" style="rounded=0;whiteSpace=wrap;html=1;" vertex="1" parent="1">
          <mxGeometry x="630" y="80" width="120" height="40" as="geometry" />
        </mxCell>
        <mxCell id="eVhwn7_vrDTEvKwWp3mb-4" value="" style="rounded=0;whiteSpace=wrap;html=1;rotation=90;" vertex="1" parent="1">
          <mxGeometry x="60" y="450" width="120" height="20" as="geometry" />
        </mxCell>
        <mxCell id="eVhwn7_vrDTEvKwWp3mb-5" value="" style="rounded=0;whiteSpace=wrap;html=1;rotation=90;" vertex="1" parent="1">
          <mxGeometry x="340" y="450" width="120" height="20" as="geometry" />
        </mxCell>
        <mxCell id="eVhwn7_vrDTEvKwWp3mb-7" value="" style="rounded=0;whiteSpace=wrap;html=1;rotation=90;" vertex="1" parent="1">
          <mxGeometry x="620" y="450" width="120" height="20" as="geometry" />
        </mxCell>
        <mxCell id="eVhwn7_vrDTEvKwWp3mb-8" value="" style="rounded=0;whiteSpace=wrap;html=1;rotation=90;" vertex="1" parent="1">
          <mxGeometry x="60" y="250" width="120" height="20" as="geometry" />
        </mxCell>
        <mxCell id="eVhwn7_vrDTEvKwWp3mb-9" value="" style="rounded=0;whiteSpace=wrap;html=1;rotation=90;" vertex="1" parent="1">
          <mxGeometry x="340" y="250" width="120" height="20" as="geometry" />
        </mxCell>
        <mxCell id="eVhwn7_vrDTEvKwWp3mb-10" value="" style="rounded=0;whiteSpace=wrap;html=1;rotation=90;" vertex="1" parent="1">
          <mxGeometry x="340" y="650" width="120" height="20" as="geometry" />
        </mxCell>
        <mxCell id="eVhwn7_vrDTEvKwWp3mb-11" value="" style="rounded=0;whiteSpace=wrap;html=1;rotation=90;" vertex="1" parent="1">
          <mxGeometry x="60" y="650" width="120" height="20" as="geometry" />
        </mxCell>
        <mxCell id="eVhwn7_vrDTEvKwWp3mb-25" value="" style="endArrow=classic;html=1;rounded=0;" edge="1" parent="1">
          <mxGeometry width="50" height="50" relative="1" as="geometry">
            <mxPoint x="130" y="220" as="sourcePoint" />
            <mxPoint x="390" y="220" as="targetPoint" />
          </mxGeometry>
        </mxCell>
        <mxCell id="eVhwn7_vrDTEvKwWp3mb-27" value="" style="endArrow=classic;html=1;rounded=0;exitX=0.667;exitY=1.2;exitDx=0;exitDy=0;exitPerimeter=0;entryX=0.667;entryY=-0.05;entryDx=0;entryDy=0;entryPerimeter=0;" edge="1" parent="1" source="eVhwn7_vrDTEvKwWp3mb-9" target="eVhwn7_vrDTEvKwWp3mb-8">
          <mxGeometry width="50" height="50" relative="1" as="geometry">
            <mxPoint x="140" y="230" as="sourcePoint" />
            <mxPoint x="400" y="230" as="targetPoint" />
          </mxGeometry>
        </mxCell>
        <mxCell id="eVhwn7_vrDTEvKwWp3mb-29" value="Login()" style="text;html=1;align=center;verticalAlign=middle;resizable=0;points=[];autosize=1;strokeColor=none;fillColor=none;" vertex="1" parent="1">
          <mxGeometry x="235" y="190" width="50" height="20" as="geometry" />
        </mxCell>
        <mxCell id="eVhwn7_vrDTEvKwWp3mb-30" value="startSession()" style="text;html=1;align=center;verticalAlign=middle;resizable=0;points=[];autosize=1;strokeColor=none;fillColor=none;" vertex="1" parent="1">
          <mxGeometry x="215" y="250" width="90" height="20" as="geometry" />
        </mxCell>
        <mxCell id="eVhwn7_vrDTEvKwWp3mb-31" value="" style="edgeStyle=elbowEdgeStyle;elbow=horizontal;endArrow=classic;html=1;rounded=0;" edge="1" parent="1">
          <mxGeometry width="50" height="50" relative="1" as="geometry">
            <mxPoint x="415" y="220" as="sourcePoint" />
            <mxPoint x="420" y="280" as="targetPoint" />
            <Array as="points">
              <mxPoint x="450" y="250" />
            </Array>
          </mxGeometry>
        </mxCell>
        <mxCell id="eVhwn7_vrDTEvKwWp3mb-34" value="" style="endArrow=none;dashed=1;html=1;rounded=0;entryX=0.425;entryY=1.1;entryDx=0;entryDy=0;entryPerimeter=0;exitX=0;exitY=0.5;exitDx=0;exitDy=0;" edge="1" parent="1" source="eVhwn7_vrDTEvKwWp3mb-7" target="eVhwn7_vrDTEvKwWp3mb-3">
          <mxGeometry width="50" height="50" relative="1" as="geometry">
            <mxPoint x="400" y="190" as="sourcePoint" />
            <mxPoint x="450" y="140" as="targetPoint" />
          </mxGeometry>
        </mxCell>
        <mxCell id="eVhwn7_vrDTEvKwWp3mb-35" value="" style="line;strokeWidth=2;html=1;" vertex="1" parent="1">
          <mxGeometry x="10" y="830" width="830" height="10" as="geometry" />
        </mxCell>
        <mxCell id="eVhwn7_vrDTEvKwWp3mb-37" value="" style="endArrow=none;dashed=1;html=1;rounded=0;entryX=1;entryY=0.5;entryDx=0;entryDy=0;" edge="1" parent="1" target="eVhwn7_vrDTEvKwWp3mb-7">
          <mxGeometry width="50" height="50" relative="1" as="geometry">
            <mxPoint x="680" y="830" as="sourcePoint" />
            <mxPoint x="450" y="640" as="targetPoint" />
          </mxGeometry>
        </mxCell>
        <mxCell id="eVhwn7_vrDTEvKwWp3mb-38" value="Authentication()" style="text;html=1;align=center;verticalAlign=middle;resizable=0;points=[];autosize=1;strokeColor=none;fillColor=none;" vertex="1" parent="1">
          <mxGeometry x="470" y="240" width="100" height="20" as="geometry" />
        </mxCell>
        <mxCell id="eVhwn7_vrDTEvKwWp3mb-39" value="" style="endArrow=none;dashed=1;html=1;rounded=0;exitX=0;exitY=0.5;exitDx=0;exitDy=0;" edge="1" parent="1" source="eVhwn7_vrDTEvKwWp3mb-9">
          <mxGeometry width="50" height="50" relative="1" as="geometry">
            <mxPoint x="403" y="190" as="sourcePoint" />
            <mxPoint x="400" y="120" as="targetPoint" />
          </mxGeometry>
        </mxCell>
        <mxCell id="eVhwn7_vrDTEvKwWp3mb-41" value="" style="endArrow=none;dashed=1;html=1;rounded=0;exitX=0;exitY=0.5;exitDx=0;exitDy=0;" edge="1" parent="1">
          <mxGeometry width="50" height="50" relative="1" as="geometry">
            <mxPoint x="119.5" y="200" as="sourcePoint" />
            <mxPoint x="119.5" y="120" as="targetPoint" />
          </mxGeometry>
        </mxCell>
        <mxCell id="eVhwn7_vrDTEvKwWp3mb-42" value="" style="endArrow=none;dashed=1;html=1;rounded=0;exitX=0;exitY=0.5;exitDx=0;exitDy=0;" edge="1" parent="1">
          <mxGeometry width="50" height="50" relative="1" as="geometry">
            <mxPoint x="399.5" y="400" as="sourcePoint" />
            <mxPoint x="399.5" y="320" as="targetPoint" />
          </mxGeometry>
        </mxCell>
        <mxCell id="eVhwn7_vrDTEvKwWp3mb-43" value="" style="endArrow=none;dashed=1;html=1;rounded=0;exitX=0;exitY=0.5;exitDx=0;exitDy=0;" edge="1" parent="1">
          <mxGeometry width="50" height="50" relative="1" as="geometry">
            <mxPoint x="119.5" y="400" as="sourcePoint" />
            <mxPoint x="119.5" y="320" as="targetPoint" />
          </mxGeometry>
        </mxCell>
        <mxCell id="eVhwn7_vrDTEvKwWp3mb-44" value="" style="endArrow=none;dashed=1;html=1;rounded=0;exitX=0;exitY=0.5;exitDx=0;exitDy=0;" edge="1" parent="1">
          <mxGeometry width="50" height="50" relative="1" as="geometry">
            <mxPoint x="399.5" y="600" as="sourcePoint" />
            <mxPoint x="399.5" y="520" as="targetPoint" />
          </mxGeometry>
        </mxCell>
        <mxCell id="eVhwn7_vrDTEvKwWp3mb-45" value="" style="endArrow=none;dashed=1;html=1;rounded=0;exitX=0;exitY=0.5;exitDx=0;exitDy=0;" edge="1" parent="1">
          <mxGeometry width="50" height="50" relative="1" as="geometry">
            <mxPoint x="119.5" y="600" as="sourcePoint" />
            <mxPoint x="119.5" y="520" as="targetPoint" />
          </mxGeometry>
        </mxCell>
        <mxCell id="eVhwn7_vrDTEvKwWp3mb-46" value="" style="endArrow=none;dashed=1;html=1;rounded=0;" edge="1" parent="1">
          <mxGeometry width="50" height="50" relative="1" as="geometry">
            <mxPoint x="400" y="830" as="sourcePoint" />
            <mxPoint x="399.5" y="720" as="targetPoint" />
          </mxGeometry>
        </mxCell>
        <mxCell id="eVhwn7_vrDTEvKwWp3mb-47" value="" style="endArrow=none;dashed=1;html=1;rounded=0;" edge="1" parent="1">
          <mxGeometry width="50" height="50" relative="1" as="geometry">
            <mxPoint x="120" y="830" as="sourcePoint" />
            <mxPoint x="119.5" y="720" as="targetPoint" />
          </mxGeometry>
        </mxCell>
        <mxCell id="eVhwn7_vrDTEvKwWp3mb-49" value="" style="endArrow=classic;html=1;rounded=0;" edge="1" parent="1">
          <mxGeometry width="50" height="50" relative="1" as="geometry">
            <mxPoint x="130" y="420" as="sourcePoint" />
            <mxPoint x="390" y="420" as="targetPoint" />
          </mxGeometry>
        </mxCell>
        <mxCell id="eVhwn7_vrDTEvKwWp3mb-51" value="" style="endArrow=classic;html=1;rounded=0;exitX=0.667;exitY=1.2;exitDx=0;exitDy=0;exitPerimeter=0;entryX=0.667;entryY=-0.05;entryDx=0;entryDy=0;entryPerimeter=0;" edge="1" parent="1">
          <mxGeometry width="50" height="50" relative="1" as="geometry">
            <mxPoint x="385" y="500" as="sourcePoint" />
            <mxPoint x="130" y="500" as="targetPoint" />
          </mxGeometry>
        </mxCell>
        <mxCell id="eVhwn7_vrDTEvKwWp3mb-52" value="" style="endArrow=classic;html=1;rounded=0;exitX=0.667;exitY=1.2;exitDx=0;exitDy=0;exitPerimeter=0;entryX=0.667;entryY=-0.05;entryDx=0;entryDy=0;entryPerimeter=0;" edge="1" parent="1">
          <mxGeometry width="50" height="50" relative="1" as="geometry">
            <mxPoint x="665" y="500.03999999999996" as="sourcePoint" />
            <mxPoint x="410" y="500.03999999999996" as="targetPoint" />
            <Array as="points">
              <mxPoint x="539" y="500" />
            </Array>
          </mxGeometry>
        </mxCell>
        <mxCell id="eVhwn7_vrDTEvKwWp3mb-53" value="" style="endArrow=classic;html=1;rounded=0;" edge="1" parent="1">
          <mxGeometry width="50" height="50" relative="1" as="geometry">
            <mxPoint x="410" y="420" as="sourcePoint" />
            <mxPoint x="670" y="420" as="targetPoint" />
          </mxGeometry>
        </mxCell>
        <mxCell id="eVhwn7_vrDTEvKwWp3mb-54" value="" style="endArrow=classic;html=1;rounded=0;" edge="1" parent="1">
          <mxGeometry width="50" height="50" relative="1" as="geometry">
            <mxPoint x="130" y="620" as="sourcePoint" />
            <mxPoint x="390" y="620" as="targetPoint" />
          </mxGeometry>
        </mxCell>
        <mxCell id="eVhwn7_vrDTEvKwWp3mb-55" value="" style="endArrow=classic;html=1;rounded=0;exitX=0.667;exitY=1.2;exitDx=0;exitDy=0;exitPerimeter=0;entryX=0.667;entryY=-0.05;entryDx=0;entryDy=0;entryPerimeter=0;" edge="1" parent="1">
          <mxGeometry width="50" height="50" relative="1" as="geometry">
            <mxPoint x="385" y="690" as="sourcePoint" />
            <mxPoint x="130" y="690" as="targetPoint" />
          </mxGeometry>
        </mxCell>
        <mxCell id="eVhwn7_vrDTEvKwWp3mb-56" value="fillCriteria()" style="text;html=1;align=center;verticalAlign=middle;resizable=0;points=[];autosize=1;strokeColor=none;fillColor=none;" vertex="1" parent="1">
          <mxGeometry x="235" y="390" width="70" height="20" as="geometry" />
        </mxCell>
        <mxCell id="eVhwn7_vrDTEvKwWp3mb-57" value="search()" style="text;html=1;align=center;verticalAlign=middle;resizable=0;points=[];autosize=1;strokeColor=none;fillColor=none;" vertex="1" parent="1">
          <mxGeometry x="510" y="390" width="60" height="20" as="geometry" />
        </mxCell>
        <mxCell id="eVhwn7_vrDTEvKwWp3mb-58" value="getResult()" style="text;html=1;align=center;verticalAlign=middle;resizable=0;points=[];autosize=1;strokeColor=none;fillColor=none;" vertex="1" parent="1">
          <mxGeometry x="515" y="460" width="70" height="20" as="geometry" />
        </mxCell>
        <mxCell id="eVhwn7_vrDTEvKwWp3mb-59" value="Display()" style="text;html=1;align=center;verticalAlign=middle;resizable=0;points=[];autosize=1;strokeColor=none;fillColor=none;" vertex="1" parent="1">
          <mxGeometry x="220" y="460" width="60" height="20" as="geometry" />
        </mxCell>
        <mxCell id="eVhwn7_vrDTEvKwWp3mb-60" value="Logout()" style="text;html=1;align=center;verticalAlign=middle;resizable=0;points=[];autosize=1;strokeColor=none;fillColor=none;" vertex="1" parent="1">
          <mxGeometry x="220" y="590" width="60" height="20" as="geometry" />
        </mxCell>
        <mxCell id="eVhwn7_vrDTEvKwWp3mb-61" value="endSession()" style="text;html=1;align=center;verticalAlign=middle;resizable=0;points=[];autosize=1;strokeColor=none;fillColor=none;" vertex="1" parent="1">
          <mxGeometry x="205" y="650" width="90" height="20" as="geometry" />
        </mxCell>
      </root>
    </mxGraphModel>
  </diagram>
</mxfile>
